<svg id="Layer_1" data-name="Layer 1" xmlns="http://www.w3.org/2000/svg" xmlns:xlink="http://www.w3.org/1999/xlink" viewBox="0 0 1080 1080"><defs><style>.cls-1{font-size:66.05px;}.cls-1,.cls-12,.cls-3{fill:#184330;}.cls-1,.cls-12{font-family:CountryWesternScriptBlack, Country Western Script Black;}.cls-2{font-size:47.35px;}.cls-4{fill:url(#linear-gradient);}.cls-5{fill:#fff;}.cls-6{fill:url(#linear-gradient-2);}.cls-7{fill:url(#linear-gradient-3);}.cls-8{fill:url(#linear-gradient-4);}.cls-9{fill:url(#linear-gradient-5);}.cls-10{fill:url(#linear-gradient-6);}.cls-11{fill:url(#linear-gradient-7);}.cls-12{font-size:50px;}.cls-13{fill:none;}.cls-14{fill:url(#linear-gradient-8);}.cls-15{fill:url(#linear-gradient-9);}.cls-16{fill:url(#linear-gradient-10);}</style><linearGradient id="linear-gradient" x1="360.2" y1="729.52" x2="430.92" y2="729.52" gradientUnits="userSpaceOnUse"><stop offset="0" stop-color="#b27f2c"/><stop offset="0.55" stop-color="#f4dd62"/><stop offset="0.63" stop-color="#f0d75f"/><stop offset="0.73" stop-color="#e4c755"/><stop offset="0.84" stop-color="#d1ab45"/><stop offset="0.97" stop-color="#b68530"/><stop offset="0.99" stop-color="#b27f2c"/></linearGradient><linearGradient id="linear-gradient-2" x1="438.03" y1="729.86" x2="496.89" y2="729.86" xlink:href="#linear-gradient"/><linearGradient id="linear-gradient-3" x1="506.3" y1="730.05" x2="574.27" y2="730.05" xlink:href="#linear-gradient"/><linearGradient id="linear-gradient-4" x1="581.41" y1="729.71" x2="645.41" y2="729.71" xlink:href="#linear-gradient"/><linearGradient id="linear-gradient-5" x1="654.93" y1="729.76" x2="694.36" y2="729.76" xlink:href="#linear-gradient"/><linearGradient id="linear-gradient-6" x1="703.83" y1="729.14" x2="760.37" y2="729.14" xlink:href="#linear-gradient"/><linearGradient id="linear-gradient-7" x1="769.87" y1="729.86" x2="828.74" y2="729.86" xlink:href="#linear-gradient"/><linearGradient id="linear-gradient-8" x1="463.15" y1="292.37" x2="352.11" y2="292.37" gradientUnits="userSpaceOnUse"><stop offset="0" stop-color="#b27f2c"/><stop offset="0.07" stop-color="#b78630"/><stop offset="0.16" stop-color="#c4993b"/><stop offset="0.28" stop-color="#dab84d"/><stop offset="0.39" stop-color="#f4dd62"/><stop offset="0.43" stop-color="#f4de67"/><stop offset="0.48" stop-color="#f4e074"/><stop offset="0.53" stop-color="#f4e38a"/><stop offset="0.54" stop-color="#f4e38b"/><stop offset="0.54" stop-color="#f4e287"/><stop offset="0.57" stop-color="#f4df73"/><stop offset="0.6" stop-color="#f4de66"/><stop offset="0.63" stop-color="#f4dd62"/><stop offset="1" stop-color="#b27f2c"/></linearGradient><linearGradient id="linear-gradient-9" x1="242.86" y1="759.8" x2="394.7" y2="607.96" xlink:href="#linear-gradient"/><linearGradient id="linear-gradient-10" x1="285.36" y1="433.49" x2="518.08" y2="666.21" gradientUnits="userSpaceOnUse"><stop offset="0" stop-color="#b27f2c"/><stop offset="0.06" stop-color="#bb8c33"/><stop offset="0.26" stop-color="#dab84d"/><stop offset="0.43" stop-color="#edd35c"/><stop offset="0.52" stop-color="#f4dd62"/><stop offset="0.62" stop-color="#f1d960"/><stop offset="0.72" stop-color="#e9ce59"/><stop offset="0.81" stop-color="#dcba4e"/><stop offset="0.9" stop-color="#c9a03f"/><stop offset="0.99" stop-color="#b27f2c"/></linearGradient></defs><text class="cls-1" transform="translate(576.47 687.95) scale(1.03 1)">O<tspan class="cls-2" x="35.47" y="0">wn</tspan></text><path class="cls-3" d="M367.28,725.71c-.32.07-.43-.09-.34-.47a11.23,11.23,0,0,0,.24-1.81,13.89,13.89,0,0,0,.15-2.53c0-.79-.05-1.47-.05-2s0-1.71,0-3.23-.08-3.11-.14-4.77c-.07-.82-.11-1.62-.15-2.38a14.21,14.21,0,0,0-.23-2.09,7.25,7.25,0,0,0,0-.86,6.75,6.75,0,0,0-.14-.76,1.14,1.14,0,0,0-.1-.48A2.63,2.63,0,0,0,365,703a12.08,12.08,0,0,0-2-.48,3,3,0,0,0-.67-.09,1.9,1.9,0,0,1-.57-.1,3.42,3.42,0,0,1-3.53-3.52,3.29,3.29,0,0,1,.53-1.91,4,4,0,0,1,1.24-1.19,4.36,4.36,0,0,1,1.47-.57,6.57,6.57,0,0,1,1.24-.14,20.1,20.1,0,0,1,2.81.19,20.1,20.1,0,0,0,2.81.19,78.82,78.82,0,0,0,8.14-.43,76.3,76.3,0,0,1,8.15-.43q3.9,0,8.05.19a59.31,59.31,0,0,1,8.14,1,42.8,42.8,0,0,1,7.72,2.24,24.87,24.87,0,0,1,6.85,4.14c1.27,1.09,2.65,2.37,4.15,3.86a24.42,24.42,0,0,1,3.57,4.43,22.09,22.09,0,0,1,1.48,3.29c.47,1.3.9,2.65,1.28,4s.72,2.76,1,4.09.49,2.48.62,3.43a1.35,1.35,0,0,0,.48,1l.9.48a12.51,12.51,0,0,1,1.1.67l.66.33c.19.09.38.21.58.33a5,5,0,0,1,.61.53l.43.42a1.84,1.84,0,0,1,.38,1.2,2.3,2.3,0,0,1-.28,1.19l-.38.47-.29.29-.28.19a8.47,8.47,0,0,1-1.91.86,7.07,7.07,0,0,1-.86.28,3.94,3.94,0,0,0-.76.29,1.53,1.53,0,0,0-1.14,1.24,35.32,35.32,0,0,1-1.91,5.76,42.24,42.24,0,0,1-6.62,10.76,34.32,34.32,0,0,1-11.9,9.15,39.82,39.82,0,0,1-8,2.66,51.7,51.7,0,0,1-8.43,1.15c-2.89.15-5.82.23-8.81.23s-6.19,0-9.24,0-6.09,0-9.14,0c-.25,0-.6,0-1.05-.05a4.06,4.06,0,0,1-1.33-.33,3.55,3.55,0,0,1-1.43-1.05,3,3,0,0,1-.67-2,2.65,2.65,0,0,1,1.15-2.43,6.67,6.67,0,0,1,1.9-.9,6.43,6.43,0,0,1,1.38-.24,7.8,7.8,0,0,0,1.19-.15,3.44,3.44,0,0,0,2.48-2.47,11.7,11.7,0,0,0,.52-2.48,23.85,23.85,0,0,0,.15-2.66,27.25,27.25,0,0,0-.15-2.86c-.09-1-.17-1.94-.23-3a34.23,34.23,0,0,1,0-4.85c.09-1.59.14-3.21.14-4.86,0-.25,0-.38-.09-.38s-.26-.19-.77-.38a5.85,5.85,0,0,0-.9-.29,6.23,6.23,0,0,1-.91-.28,5.24,5.24,0,0,1-1.19-.62,4.07,4.07,0,0,1-1.09-1.19,2.09,2.09,0,0,1-.14-1.1,2,2,0,0,1,.33-1.1,2.14,2.14,0,0,1,.52-.52l.62-.43a2.81,2.81,0,0,1,.53-.38l.62-.38c.38-.19.74-.4,1.09-.62s.65-.39.91-.52a1.83,1.83,0,0,0,.42-.1A2.42,2.42,0,0,0,367.28,725.71Z"/><path class="cls-4" d="M430.9,730.09c0-.12-.09-.22-.28-.28-.57-.38-1.18-.75-1.81-1.1s-1.24-.71-1.81-1.09a3,3,0,0,1-1.33-2.19,29,29,0,0,0-.48-3.24c-.25-1.27-.57-2.59-.95-4s-.81-2.66-1.29-3.9a29.28,29.28,0,0,0-1.38-3.1,26.49,26.49,0,0,0-2.1-2.66q-1.34-1.53-2.85-3a40.5,40.5,0,0,0-3.1-2.72,25,25,0,0,0-2.71-1.9,23.07,23.07,0,0,0-6.53-2.67,55.57,55.57,0,0,0-7.81-1.38c-2.7-.29-5.38-.44-8.05-.48s-5.08,0-7.24,0q-3.53.09-6.52.47a48.42,48.42,0,0,1-6.24.38h-1.76a10.53,10.53,0,0,1-2-.19c-.32-.06-.64-.11-1-.14s-.63,0-.95,0a3.33,3.33,0,0,0-1.81.48,1.8,1.8,0,0,0-.76,1.81,1.66,1.66,0,0,0,1.29,1.19,13.7,13.7,0,0,0,2,.33,7.32,7.32,0,0,1,2.86.62,4.3,4.3,0,0,1,1.8,2.14,3,3,0,0,1,.39,1c.06.35.12.72.19,1.1q.09,3.33.19,6.67t.28,6.66v.1c-.06.95-.09,1.9-.09,2.86s0,1.9-.1,2.85a3.4,3.4,0,0,1-1.52,3h-.1c-.57.38-1.19.74-1.85,1.09a13.16,13.16,0,0,0-1.77,1.1c-.19.06-.28.16-.28.28s.06.29.38.48a4.53,4.53,0,0,0,1.52.71c.57.16,1.11.31,1.62.43a2.47,2.47,0,0,1,1.72,2.48l-.1,1.33c0,1.4,0,2.78-.05,4.15s0,2.74.05,4.14.24,2.9.33,4.33a21.81,21.81,0,0,1-.14,4.34,11.16,11.16,0,0,1-1.19,4.38,4.6,4.6,0,0,1-3.38,2.38,7.66,7.66,0,0,1-1.71.19,2.62,2.62,0,0,0-1.62.57,1.11,1.11,0,0,0-.58,1.43,1.22,1.22,0,0,0,1,1,6,6,0,0,0,1.52.19c.89,0,1.73,0,2.53,0s1.6,0,2.42,0q3.44,0,6.72.09t6.71.1c2.61,0,5.13,0,7.58-.14a50.22,50.22,0,0,0,7.19-.81,46.93,46.93,0,0,0,7-1.91,31.26,31.26,0,0,0,6.9-3.52,19.23,19.23,0,0,0,5.48-4.48c1.56-1.84,3-3.71,4.34-5.62a30.56,30.56,0,0,0,3.42-5.48,22.67,22.67,0,0,0,1.81-6.24,3.33,3.33,0,0,1,2.38-2.66c.58-.19,1.13-.37,1.67-.53a6,6,0,0,0,1.57-.71C430.84,730.38,431,730.22,430.9,730.09Z"/><path class="cls-3" d="M416.24,733.24a21.44,21.44,0,0,1-.86,3.85,44.12,44.12,0,0,1-1.57,4.24,35,35,0,0,1-2.05,4,23,23,0,0,1-2.29,3.24c-.51.51-1,1-1.52,1.43s-1.05.89-1.62,1.33-1,.78-1.43,1.19a17.1,17.1,0,0,1-1.43,1.2c-1,.82-1.82,1.52-2.62,2.09a14.43,14.43,0,0,1-2.43,1.43,10.42,10.42,0,0,1-2.66.81,20.5,20.5,0,0,1-3.34.24c-1,0-2.17,0-3.47-.1a26.09,26.09,0,0,1-3.86-.47,15.54,15.54,0,0,1-3.53-1.15,5.56,5.56,0,0,1-2.47-2.19,5.76,5.76,0,0,1-.95-2.47c-.13-.89-.26-1.78-.38-2.67q-.48-5.91-.67-11.77a107.12,107.12,0,0,1,.28-11.85q.39-5.24.91-10.43a49.82,49.82,0,0,0,0-10.43v-1.43a3.28,3.28,0,0,1,2.53-2.38,16.79,16.79,0,0,1,4.52-.57,45.1,45.1,0,0,1,8.29.76,33.71,33.71,0,0,1,7.76,2.43A26.57,26.57,0,0,1,408,708a22.33,22.33,0,0,1,5,6.62,24.56,24.56,0,0,1,2.38,7,57.12,57.12,0,0,1,.86,7.38v2.14C416.33,731.82,416.3,732.54,416.24,733.24Z"/><path class="cls-5" d="M385.28,702.28c-.25,0-.67,0-1.24.05a14.2,14.2,0,0,0-1.71.19,5.38,5.38,0,0,0-1.53.47,1,1,0,0,0-.66.91,28.9,28.9,0,0,0,.14,2.91c.09,1,.14,2,.14,2.9a107.61,107.61,0,0,1-.71,12.38,105.53,105.53,0,0,0-.72,12.38c0,.83,0,2.15.05,4s.1,3.71.19,5.71.27,3.88.53,5.62a10.58,10.58,0,0,0,.95,3.57A4.85,4.85,0,0,0,383,755.1a14.24,14.24,0,0,0,3.19.9,24.73,24.73,0,0,0,3.43.33c1.14,0,2.09,0,2.85,0a19.43,19.43,0,0,0,3-.19,8.4,8.4,0,0,0,2.33-.71,13.67,13.67,0,0,0,2.14-1.29c.7-.51,1.49-1.14,2.38-1.9l3.15-2.57a25.68,25.68,0,0,0,2.66-2.48,13.86,13.86,0,0,0,2.1-2.86,32.21,32.21,0,0,0,1.9-3.86c.58-1.36,1.08-2.71,1.53-4a14.1,14.1,0,0,0,.76-3.42c.06-.7.1-1.38.1-2v-2a29.46,29.46,0,0,0-2.1-11.48,22.67,22.67,0,0,0-5.95-8.38,25.7,25.7,0,0,0-9.19-5.09A38.62,38.62,0,0,0,385.28,702.28Z"/><path class="cls-3" d="M468.62,725.43a6.21,6.21,0,0,0,.77-1.24,26.55,26.55,0,0,0,1.57-2.48c.41-.76.65-1.2.71-1.33a17.05,17.05,0,0,1,1.24-2.38,11.38,11.38,0,0,1,1.62-2.1,4.18,4.18,0,0,0,.33-.57,5.7,5.7,0,0,1,.34-.57c.88-1.59,1.71-3.19,2.47-4.81s1.46-3.26,2.1-4.91a5.08,5.08,0,0,0,.47-1.24,3.37,3.37,0,0,0,.1-.66,2.07,2.07,0,0,0,0-.53.8.8,0,0,1-.05-.23,8.34,8.34,0,0,1-.85-.2H478a5.47,5.47,0,0,1-2.29-.71,2.67,2.67,0,0,1-1.43-2.62,2.71,2.71,0,0,1,.76-2.05,4.78,4.78,0,0,1,1.53-1,11,11,0,0,1,1.28-.28,8,8,0,0,1,1.1-.1l16.29-.28a7.43,7.43,0,0,1,1,.09,3.11,3.11,0,0,1,1.19.48,3.31,3.31,0,0,1,.95.95,2.94,2.94,0,0,1,.38,1.62,3.71,3.71,0,0,1-1.71,3.43,7.24,7.24,0,0,1-.81.28l-.72.19a1.47,1.47,0,0,1-.52.15,3.76,3.76,0,0,0-.62.14,9.33,9.33,0,0,0-2.19.72,5.49,5.49,0,0,0-2.19,2.23q-3.33,5.54-6.48,11.05t-6.47,11c.12.12.22.19.28.19a4.66,4.66,0,0,1,1.91,1.43,1.77,1.77,0,0,1,.38,1,1.54,1.54,0,0,1-.1,1,2,2,0,0,1-.52.76c-.23.19-.4.35-.53.47a7.15,7.15,0,0,1-1.14.67c-.32.13-.67.26-1.05.38l-1.14.38a4.86,4.86,0,0,0-1.62.57,17.81,17.81,0,0,0-.67,2.48,23.3,23.3,0,0,0-.38,3c-.06,1-.11,2-.14,3s-.05,2-.05,2.86v2.14c0,.8,0,1.64.1,2.53s.14,1.66.24,2.33a6.55,6.55,0,0,0,.42,1.67,3.2,3.2,0,0,0,1.2,1.57,7.47,7.47,0,0,0,1.66.71,1.63,1.63,0,0,0,.57.1,2,2,0,0,1,.58.09,5.4,5.4,0,0,1,2.23,1.24,3,3,0,0,1,.91,2.29,3.76,3.76,0,0,1-1.14,2.76,2.72,2.72,0,0,1-1.05.52c-.38.1-.76.21-1.15.34a14.34,14.34,0,0,1-1.9.33c-.83.1-1.68.17-2.57.24s-1.73.09-2.53.09h-1.95c-1.14.07-2.28.1-3.43.1h-7.62a5.66,5.66,0,0,1-2.71-.76,3.07,3.07,0,0,1-1.38-3,3.13,3.13,0,0,1,1.14-2.61,8.07,8.07,0,0,1,2.67-1.39,6.12,6.12,0,0,1,.9-.28,5.28,5.28,0,0,0,.91-.29,2.19,2.19,0,0,0,.76-.47,5.21,5.21,0,0,0,.62-2.39c.15-1.33.28-2.8.38-4.42s.16-3.18.19-4.67,0-2.46,0-2.91v-1.9c0-.64,0-1.3-.1-2,0-.51,0-1-.05-1.48s-.08-1-.14-1.47a8.06,8.06,0,0,0-.9-.48l-.91-.38c-.32-.13-.59-.22-.81-.29a4.33,4.33,0,0,1-.71-.28,9.55,9.55,0,0,1-1.81-.86l-.29-.19-.28-.29-.39-.47a1.7,1.7,0,0,1-.33-1.19,2.06,2.06,0,0,1,.43-1.19,1.84,1.84,0,0,1,.67-.58,2.08,2.08,0,0,0,.57-.38,7.24,7.24,0,0,1,1.14-.66c-.13-.26-.27-.53-.43-.81s-.33-.59-.52-.91c-.45-.82-1-1.76-1.53-2.81s-1.17-2.11-1.81-3.19q-1.9-3.33-3.66-6.62a23.24,23.24,0,0,1-2.15-4.9,4.23,4.23,0,0,0-1.71-2.29,1.92,1.92,0,0,1-.71-.67l-.43-.66a1.4,1.4,0,0,1-.24-.57,1.38,1.38,0,0,0-.24-.58,1.23,1.23,0,0,0-.28-.47c0-.06-.29-.13-.86-.19a4.45,4.45,0,0,0-.95-.1,5.2,5.2,0,0,1-1-.09,7.46,7.46,0,0,0-1.14-.34,3.3,3.3,0,0,1-2.67-3.38,3,3,0,0,1,1.62-3,7.79,7.79,0,0,1,3.53-.81,6.27,6.27,0,0,1,.81.05,4.56,4.56,0,0,0,.62,0,17.93,17.93,0,0,1,3.19.28,17.77,17.77,0,0,0,3.19.29,13.43,13.43,0,0,0,3-.33,13,13,0,0,1,3.05-.34c.32,0,.72,0,1.19.05a8,8,0,0,1,1.48.24,13.08,13.08,0,0,1,1.95,1.09,2.21,2.21,0,0,1,.91,2,3.12,3.12,0,0,1-1.1,2.47,7.49,7.49,0,0,1-2.43,1.43l-.85.29h-.19a5.45,5.45,0,0,0,.57,1.62,10.32,10.32,0,0,0,.66,1.28c.26.42.51.84.77,1.29a34.43,34.43,0,0,1,2.28,4.43q1,2.23,2.1,4.43c.5.89,1.06,1.77,1.66,2.66s1.19,1.78,1.77,2.67c.5.7,1,1.43,1.42,2.19S468.24,724.66,468.62,725.43Z"/><path class="cls-6" d="M496.15,697.23a1.85,1.85,0,0,0-.95-.19l-16.29.29a10.87,10.87,0,0,0-1.14,0,1.65,1.65,0,0,0-1,.52,1,1,0,0,0-.57,1,1.18,1.18,0,0,0,.57,1.1,2.42,2.42,0,0,0,1.24.33,4.85,4.85,0,0,0,.76,0,6.47,6.47,0,0,1,.76-.05,2.71,2.71,0,0,1,2.34,1.29,3.25,3.25,0,0,1,.42,1.95,8,8,0,0,1-.66,2.48c-.45,1.14-1,2.37-1.57,3.67s-1.21,2.51-1.81,3.62-1,1.92-1.29,2.43a17.38,17.38,0,0,1-1.81,2.57,9,9,0,0,0-1.62,2.85,8.05,8.05,0,0,1-.81,1.62c-.48.83-1,1.69-1.57,2.58s-1.13,1.68-1.67,2.38-.9,1-1.09,1-.51-.11-.57-.33a4.43,4.43,0,0,0-.29-.71,28.06,28.06,0,0,0-3-5.38q-2-2.82-3.57-5.67a39.43,39.43,0,0,1-2.19-4.48,37.28,37.28,0,0,0-2.19-4.38c-.57-1-1.12-1.92-1.62-2.9a5.93,5.93,0,0,1-.67-3.1c0-.25.24-.46.72-.62s1-.35,1.52-.57a11.34,11.34,0,0,0,1.52-.76,1.51,1.51,0,0,0,.81-1.1c.13-.57-.16-1-.85-1.24a8.67,8.67,0,0,0-1.81-.47c-.7,0-1.35,0-2,0a19.13,19.13,0,0,0-1.95.24,11.45,11.45,0,0,1-1.57.29,14.31,14.31,0,0,1-1.57.09c-.32,0-.67,0-1.05,0a9.81,9.81,0,0,1-1.05-.15c-.89-.12-1.76-.22-2.62-.28s-1.73-.1-2.62-.1h-1.33a4.08,4.08,0,0,0-1.24.19,1.9,1.9,0,0,0-.9.62,1.88,1.88,0,0,0-.24,1.38,1.16,1.16,0,0,0,.76.95,5.9,5.9,0,0,0,1.52.43c.58.1,1.16.18,1.77.24a5.74,5.74,0,0,1,1.57.38,2.29,2.29,0,0,1,1.09,1.53,2.94,2.94,0,0,0,1,1.62,4.58,4.58,0,0,1,1.53,1.43,6.42,6.42,0,0,1,.85,1.9,8.15,8.15,0,0,0,1.29,3.14,13.57,13.57,0,0,1,1.57,2.77,19.88,19.88,0,0,0,2.57,4.66,16,16,0,0,1,1.81,3.24,22.62,22.62,0,0,0,1.72,3.33c.25.45.49.86.71,1.24s.46.76.72,1.15a.88.88,0,0,1-.29,1.33l-1.28.71c-.42.23-.81.47-1.2.72l-.28.28c0,.19.13.35.38.48a6.36,6.36,0,0,0,1.52.62c.58.16,1.13.33,1.67.52a11.08,11.08,0,0,1,1.52.67,3.36,3.36,0,0,1,1.2,1,14.51,14.51,0,0,1,.28,1.47,11.86,11.86,0,0,1,.1,1.48c0,1.14,0,2.49,0,4s0,3.17,0,4.86-.15,3.35-.24,5a37.56,37.56,0,0,1-.53,4.57,5.47,5.47,0,0,0-.28,1,2.37,2.37,0,0,1-.48,1,3.61,3.61,0,0,1-2.24,1.38,18.83,18.83,0,0,0-2.71.81,2,2,0,0,0-.95,2.38,1.06,1.06,0,0,0,.76.91,4.14,4.14,0,0,0,1.33.23q4.38-.09,8.77-.14t8.85-.14l1.67-.19a3.32,3.32,0,0,0,1.57-.67,1.73,1.73,0,0,0-1.05-3,10,10,0,0,1-2.19-.52,3.75,3.75,0,0,1-2-1.15,6.47,6.47,0,0,1-1.19-2,9.81,9.81,0,0,1-.57-2.33c-.09-.83-.17-1.59-.24-2.29-.12-1.9-.17-3.81-.14-5.71s.14-3.78.33-5.62c.07-.83.16-1.77.29-2.81a7.37,7.37,0,0,1,.76-2.62,1.08,1.08,0,0,1,.38-.67,6.75,6.75,0,0,1,2.57-1.09,7.82,7.82,0,0,0,2.67-1.1q.48-.19.48-.48l-.29-.28a8,8,0,0,0-1.38-.81,8,8,0,0,1-1.38-.81.37.37,0,0,1-.19-.57c1.08-1.84,2.2-3.64,3.38-5.38A41.67,41.67,0,0,0,481,717a50,50,0,0,1,3.57-6.38q1.95-3,3.76-6.1a16.88,16.88,0,0,1,1.43-2,5.17,5.17,0,0,1,1.81-1.38,4.42,4.42,0,0,1,1.86-.38,4.57,4.57,0,0,0,1.85-.38,2.47,2.47,0,0,0,1.48-1.53A1.13,1.13,0,0,0,496.15,697.23Z"/><path class="cls-3" d="M574.45,701a4.22,4.22,0,0,1-1.24.57l-1.34.38a6.81,6.81,0,0,1-1.14.29,6.81,6.81,0,0,0-1.14.29,2.93,2.93,0,0,0-.86.19h-.29l-.09.09a.55.55,0,0,0-.19.38,3,3,0,0,0-.19.77,2.61,2.61,0,0,0-.1.85,97.1,97.1,0,0,0-.43,10c0,3.33,0,6.65,0,10a1.8,1.8,0,0,0,.76,1.52,11.77,11.77,0,0,1,1.1.53,8.56,8.56,0,0,1,1,.62,11.15,11.15,0,0,1,1.14.66,4.12,4.12,0,0,1,1.15,1,1.84,1.84,0,0,1,.38,1,1.54,1.54,0,0,1-.1,1,2.76,2.76,0,0,1-1,1.28,6.69,6.69,0,0,1-1.14.62c-.32.13-.62.24-.91.33l-.9.34a2.6,2.6,0,0,0-1,.62,1.87,1.87,0,0,0-.28,1.19q0,3.71-.24,7.43t-.24,7.52c0,1.27.06,2.56.19,3.86s.19,2.59.19,3.86c0,.38,0,.89,0,1.52a8.2,8.2,0,0,1-.14,1.91l-.24,1.09a2.91,2.91,0,0,1-.62,1.19,3.16,3.16,0,0,1-1,1.1,3,3,0,0,1-1.62.43,4.68,4.68,0,0,1-2.43-.72,11.19,11.19,0,0,1-2.05-1.57,8.56,8.56,0,0,1-.85-.76,51,51,0,0,1-4.53-4.53q-2-2.32-4-4.71t-3.67-4.86c-1.17-1.59-2.39-3.17-3.66-4.76l-4.38-5.34c-1.47-1.77-3-3.49-4.48-5.14q-1.82-1.91-3.48-3.9c-1.11-1.34-2.21-2.7-3.28-4.1s-2-2.7-3.05-4.1-2-2.76-3-4.09c0-.06,0-.1,0-.1s-.05,0-.05-.09c-.12,3-.22,6.11-.28,9.19s-.1,6.14-.1,9.19c0,1.65,0,3.33-.09,5s-.07,3.43,0,5.14.17,3.4.33,5.05a30.08,30.08,0,0,0,.81,4.67,2.67,2.67,0,0,0,1,1.62,5.52,5.52,0,0,0,1.71.57,1.93,1.93,0,0,0,.57.09,1.91,1.91,0,0,1,.58.1,3,3,0,0,1,1.33.28,4.06,4.06,0,0,1,1.57,1,2.73,2.73,0,0,1,.72,2,3.24,3.24,0,0,1-.43,1.67,3.91,3.91,0,0,1-1.1,1.19,6.13,6.13,0,0,1-2.19.81,17,17,0,0,1-2.38.14h-1.62c-1.65,0-3.32,0-5,.1s-3.35.09-5,.09h-1.91c-.5,0-1.06,0-1.66-.09a5.85,5.85,0,0,1-1.67-.43,3.1,3.1,0,0,1-1.24-.95,2.67,2.67,0,0,1-.47-1.67,3.21,3.21,0,0,1,1.47-3.09,12,12,0,0,1,3.38-1.2,1.83,1.83,0,0,0,1-.28c.31-.13.6-.64.85-1.53a13.56,13.56,0,0,0,.29-2.85q0-4.58.09-9.19t.1-9.2a3.94,3.94,0,0,0-.76-.38,4.14,4.14,0,0,0-.76-.28,4,4,0,0,1-.77-.29,6,6,0,0,0-.81-.33,5.18,5.18,0,0,1-.9-.43l-.29-.19-.28-.29-.38-.47a2.3,2.3,0,0,1-.29-1.19,1.84,1.84,0,0,1,.38-1.19,5,5,0,0,1,1-1q.57-.37,1.05-.66l1.71-.86a1.91,1.91,0,0,0,1.15-1.62q0-4.29-.05-8.57t-.05-8.57c0-.64,0-1.21-.05-1.72a6.47,6.47,0,0,0-.24-1.43,2.19,2.19,0,0,0-.47-.76,2.26,2.26,0,0,0-.95-.48,9.94,9.94,0,0,0-1.1-.14,4.74,4.74,0,0,1-1.19-.24,5.38,5.38,0,0,1-1.81-.95,2.74,2.74,0,0,1-1-2.38,6.85,6.85,0,0,1,.67-2.76,2.6,2.6,0,0,1,2.09-1.72,1.14,1.14,0,0,1,.48-.09,2.59,2.59,0,0,0,.67-.1,6.19,6.19,0,0,1,1.14-.09,10.54,10.54,0,0,0,1.43-.1q1.43-.09,2.67-.09h2.57a7,7,0,0,1,1,.09A5.92,5.92,0,0,1,520,696a15.05,15.05,0,0,1,1.86,1.72c.51.57,1,1.16,1.43,1.76l1.23,1.67q2.19,2.76,4.34,5.57t4.62,5.57Q536,715,538.25,718c1.52,2,3.14,4,4.86,5.86,1.46,1.65,2.89,3.34,4.28,5.05l4.19,5.14c2.42,2.93,4.89,5.78,7.43,8.58-.06-1.53-.11-3.07-.14-4.62s0-3.1,0-4.62,0-2.89.1-4.29.09-2.82.09-4.29c0-2.41,0-4.81-.14-7.19s-.14-4.77-.14-7.19v-2.66a15.27,15.27,0,0,0-.29-2.77,2.44,2.44,0,0,0-1.62-2,9.68,9.68,0,0,0-1.47-.33,11.72,11.72,0,0,1-1.77-.43A6.15,6.15,0,0,1,551.2,701a3,3,0,0,1-1-2.42,3,3,0,0,1,1.09-2.48,4.12,4.12,0,0,1,2.14-1,19.13,19.13,0,0,1,2.77-.19h8.28c1.34,0,2.67,0,4-.1s2.64-.09,3.91-.09a4.58,4.58,0,0,1,1.09.14,4,4,0,0,1,1.24.52,3.29,3.29,0,0,1,1.05,1.05,2.92,2.92,0,0,1,.43,1.62,2.69,2.69,0,0,1-.57,1.81A10.21,10.21,0,0,1,574.45,701Z"/><path class="cls-7" d="M573.87,697.33a1.89,1.89,0,0,0-1.52-.67q-4.67.29-9.38.24c-3.15,0-6.27,0-9.39.14a1.19,1.19,0,0,0-.71.24,3.7,3.7,0,0,0-.52.43,1.08,1.08,0,0,0-.29,1.14,1.81,1.81,0,0,0,.76,1,4.91,4.91,0,0,0,1.19.48,8.43,8.43,0,0,1,1.19.38,5.28,5.28,0,0,0,1.1.23,4.17,4.17,0,0,1,1,.24,6.65,6.65,0,0,1,2,.95,3.47,3.47,0,0,1,1,2.48c.13.83.23,1.78.29,2.86s.09,2.06.09,3c-.06,3.18,0,6.3.19,9.38a74.32,74.32,0,0,1,0,9.2,63.54,63.54,0,0,0,0,8.14q.22,3.48.14,7.38c0,.32,0,.73,0,1.24s-.21.79-.52.86-.51-.11-.76-.53a3.26,3.26,0,0,0-.77-.9q-2.85-2.87-5-5.38c-1.43-1.68-2.79-3.34-4.09-5l-3.86-4.81c-1.27-1.58-2.67-3.24-4.19-5q-1.53-1.71-2.67-3.09c-.76-.92-1.47-1.82-2.14-2.67l-2.1-2.67c-.73-.92-1.63-2-2.71-3.19a70.33,70.33,0,0,1-4.62-5.52c-1.43-1.91-2.91-3.81-4.43-5.72-.83-1-1.7-2.11-2.62-3.29a6,6,0,0,0-3.29-2.23,2.78,2.78,0,0,0-.76-.1H514c-.63.06-1.16.1-1.57.1s-.81,0-1.19,0a11.47,11.47,0,0,1-1.19.05,14.46,14.46,0,0,0-1.57.1c-.51,0-.83.09-1,.28a3.81,3.81,0,0,0-.71,1.53c-.22.76-.21,1.27.05,1.52.57.7,1.08,1.05,1.52,1.05a10.4,10.4,0,0,1,2,.28,3.5,3.5,0,0,1,2.38,1.81,6.22,6.22,0,0,1,.77,3c.06,1.52,0,3.33,0,5.43s-.11,3.84-.05,5.23.1,2.67.1,4,0,2.64.09,3.91a3.17,3.17,0,0,1-1.52,2.86,11.92,11.92,0,0,1-1.81,1.14,16.79,16.79,0,0,0-1.81,1l-.29.28c-.06.13.06.29.38.48a6,6,0,0,0,1.57.71c.54.16,1.07.34,1.58.53a2.31,2.31,0,0,1,1.38.9,2.23,2.23,0,0,1,.43,1.57c0,3,0,6-.1,9s-.1,5.95-.1,9a16,16,0,0,1-.38,3.47,3.8,3.8,0,0,1-1.81,2.62,4.57,4.57,0,0,1-1.66.48,5.49,5.49,0,0,0-1.76.48,2.21,2.21,0,0,0-1.2,1.14,1.46,1.46,0,0,0,.15,1.62,3.37,3.37,0,0,0,1.52.28c.89.07,2,.1,3.24.1,1.59,0,3.3,0,5.14,0s3.46-.08,4.86-.14h2a12.15,12.15,0,0,0,1.57-.1,2.51,2.51,0,0,0,1.29-.47,2.2,2.2,0,0,0,1-1.34q.09-.66-1.05-1.23a5.45,5.45,0,0,0-2.09-.48,4.21,4.21,0,0,1-2.67-1,6,6,0,0,1-1.48-2.1,10.37,10.37,0,0,1-.71-2.71c-.13-1-.22-1.92-.29-2.81q-.18-3.15-.23-7.15c0-2.66,0-5.39,0-8.19s0-5.52,0-8.19.09-5.06.19-7.19.19-3.86.28-5.19a6.36,6.36,0,0,1,.34-2.19.34.34,0,0,1,.28-.1q.29,0,.72.48a11.5,11.5,0,0,1,.85,1.09c.29.42.54.81.77,1.19s.36.64.42.77c.83,1,1.4,1.74,1.72,2.19s.65.89,1,1.33.79,1,1.33,1.76,1.41,1.89,2.62,3.48c.76,1,1.57,2,2.43,3.14a48.2,48.2,0,0,0,3.57,4.1c.51.51,1.18,1.24,2,2.19s1.67,2,2.53,3,1.69,2.06,2.52,3.05,1.46,1.76,1.9,2.33q1.9,2.38,3.63,4.71t3.52,4.67c1.2,1.56,2.49,3.11,3.86,4.67a50.33,50.33,0,0,0,4.62,4.62c.63.51,1.3,1.06,2,1.67a3.22,3.22,0,0,0,2.09.9,1.47,1.47,0,0,0,1-.29c.2-.12.35-.55.48-1.28a18,18,0,0,0,.24-2.57c0-1,0-2,0-3a22.35,22.35,0,0,0-.24-2.81,9.16,9.16,0,0,1-.09-1.52v-2.29c0-.82,0-1.6,0-2.33s0-1.26,0-1.58c.13-1.77.22-3.52.29-5.23s.09-3.4.09-5.05a3.75,3.75,0,0,1,.76-2.34,4,4,0,0,1,2-1.38c.45-.12.86-.25,1.24-.38a3.17,3.17,0,0,0,1.05-.57q.48-.19.48-.48l-.29-.28a17.81,17.81,0,0,0-1.81-1,11.45,11.45,0,0,1-1.81-1.14h-.09a3.56,3.56,0,0,1-1.62-3v-6.1c.06-2.28.08-4.62,0-7a53.92,53.92,0,0,1,.33-7,13.43,13.43,0,0,1,.38-2,2.07,2.07,0,0,1,1.14-1.47,7.26,7.26,0,0,1,2-.62l2.14-.34a3.92,3.92,0,0,0,1.14-.38,3.69,3.69,0,0,0,1-.66,1.67,1.67,0,0,0,.47-.86A1,1,0,0,0,573.87,697.33Z"/><path class="cls-3" d="M630.83,732.86q.76,2.28,1.76,4.61t2,4.53c.57,1.27,1.13,2.54,1.67,3.81l1.48,3.48c.44,1,.82,1.93,1.14,2.66s.54,1.26.67,1.57.38.78.57,1.2a5.54,5.54,0,0,0,.66,1.09,2.63,2.63,0,0,0,1.34,1.14.65.65,0,0,0,.38.15l.38,0a10.2,10.2,0,0,1,1.43.38,4.09,4.09,0,0,1,2,1,2.74,2.74,0,0,1,.9,2.14,2.11,2.11,0,0,1-.86,1.9c-.57.38-1,.64-1.23.77a7.76,7.76,0,0,1-1.24.28,9.51,9.51,0,0,1-1.24.1c-.76.06-1.53.09-2.29.09h-1.62l-15.71-.09a3,3,0,0,1-1.72-.62,2.27,2.27,0,0,1-.85-2,2.36,2.36,0,0,1,.57-1.66,6.55,6.55,0,0,1,1.33-1.1c.32-.12.68-.28,1.1-.47l1.28-.58a5,5,0,0,0,1.72-1c.19-.12.28-.22.28-.28a7.55,7.55,0,0,0-.86-3.24c-.31-.7-.63-1.38-1-2.05a12.07,12.07,0,0,1-.76-2,19.13,19.13,0,0,1-.81-3.52,27.23,27.23,0,0,0-.71-3.53,1.88,1.88,0,0,0-.67-1.14h-1a10.75,10.75,0,0,0-1.43-.09h-1.53c-1.08-.07-2.12-.1-3.14-.1H610.5c-1.18,0-2.4,0-3.67.1h-1.91a13.58,13.58,0,0,0-1.61.09,4.27,4.27,0,0,0-.67,0,3.26,3.26,0,0,1-.48,0c0-.07-.06,0-.19.28s-.25.67-.38,1l-.38,1.14a12.7,12.7,0,0,0-.29,1.24,11.88,11.88,0,0,1-.28,1.24q-.39,1.33-.81,2.67a14.8,14.8,0,0,1-1.19,2.66,1.5,1.5,0,0,0-.24.67,3.42,3.42,0,0,1-.24.86,3.59,3.59,0,0,1-.38,1,3.67,3.67,0,0,1-.57,1.34,2.13,2.13,0,0,0-.19.66,1.54,1.54,0,0,0,.38,1.15,3.75,3.75,0,0,0,1.71.66,13,13,0,0,0,1.43.29,6.44,6.44,0,0,1,1.24.29,4.69,4.69,0,0,1,1.53.85,2.51,2.51,0,0,1,.85,2.1,6.08,6.08,0,0,1-.09.86,4.2,4.2,0,0,1-.43,1.19,3.76,3.76,0,0,1-.91,1.09,2.45,2.45,0,0,1-1.62.48,35.66,35.66,0,0,1-4.14-.24,35.66,35.66,0,0,0-4.14-.24c-1.4,0-2.77.06-4.1.19s-2.67.19-4,.19l-.86,0c-.44,0-.89-.08-1.33-.15a10,10,0,0,1-1.43-.47,2.42,2.42,0,0,1-1.28-1,2.46,2.46,0,0,1-.34-1.19,3.14,3.14,0,0,1,1-2.58,5.63,5.63,0,0,1,2.48-1,1.79,1.79,0,0,1,.53-.15,3.64,3.64,0,0,0,.61-.14,8.12,8.12,0,0,0,2.24-1,7,7,0,0,0,2.24-3q2.1-4.86,4-9.81t3.58-10.1a1.67,1.67,0,0,1,.19-.76.59.59,0,0,0-.38-.09h-.39a4.52,4.52,0,0,0-.71-.39A3.64,3.64,0,0,1,594,732l-.57-.57a1.9,1.9,0,0,1-.52-1.29,1.6,1.6,0,0,1,.42-1.29,3.49,3.49,0,0,1,.67-.66c.25-.19.48-.35.67-.48a8.5,8.5,0,0,0,.76-.43,6.26,6.26,0,0,1,.86-.43,3.24,3.24,0,0,0,.71-.47,3.47,3.47,0,0,1,.72-.48,3.06,3.06,0,0,0,.61-.38,5.52,5.52,0,0,0,.43-.38,6.31,6.31,0,0,0,1.34-2.38,13.05,13.05,0,0,0,.66-1.62,13.08,13.08,0,0,1,.67-1.62q1.25-2.85,2.05-4.95t1.66-5.05c.2-.7.4-1.41.62-2.14a12.15,12.15,0,0,1,.91-2.15c.38-.63.78-1.25,1.19-1.85a13.76,13.76,0,0,0,1.1-2,3.67,3.67,0,0,0,.28-.76,3.38,3.38,0,0,1,.29-.76c.12-.32.25-.67.38-1a3.17,3.17,0,0,1,.57-1.05,7.38,7.38,0,0,1,1.62-1.85,4,4,0,0,1,2.76-1h.48a1.83,1.83,0,0,1,1.33.57,7,7,0,0,1,1.05,1.38,15.29,15.29,0,0,1,.81,1.62,7.23,7.23,0,0,1,.43,1.38c.19.7.36,1.38.52,2.05s.3,1.35.43,2a42.12,42.12,0,0,0,1.33,5.09q.85,2.63,1.91,5.29c.69,1.78,1.41,3.54,2.14,5.28s1.44,3.42,2.14,5a4.26,4.26,0,0,0,1.91,1.72,7.49,7.49,0,0,1,.9.43,8.46,8.46,0,0,0,.91.43,6.5,6.5,0,0,1,1.9,1.61,2.14,2.14,0,0,1,.34,1.1,2.18,2.18,0,0,1-.15,1.1A4.72,4.72,0,0,1,630.83,732.86Z"/><path class="cls-8" d="M644.17,759.43c-.45-.13-.89-.24-1.34-.33s-.89-.21-1.33-.34a4.67,4.67,0,0,1-2.14-1.85,29.66,29.66,0,0,1-1.48-2.62q-4.67-10.57-9.14-21.43a1.11,1.11,0,0,1,0-.91,1.15,1.15,0,0,1,.66-.62,9.94,9.94,0,0,0,1.81-.76c.26-.13.38-.29.38-.48l-.28-.28c-.57-.38-1.18-.75-1.81-1.1s-1.24-.71-1.81-1.09a7.1,7.1,0,0,1-.57-.43,7.1,7.1,0,0,0-.57-.43,3.63,3.63,0,0,1-.86-1.33q-1.34-3.24-2.57-6.39c-.83-2.09-1.65-4.22-2.48-6.38-.51-1.39-1-2.76-1.48-4.09a35.74,35.74,0,0,1-1.19-4.19c-.32-1.34-.62-2.67-.9-4a7.86,7.86,0,0,0-1.76-3.53h-.19a2.42,2.42,0,0,0-1.77.53,5.19,5.19,0,0,0-1.28,1.38,7.59,7.59,0,0,0-.72,1.76,7.55,7.55,0,0,1-.71,1.76,12.29,12.29,0,0,1-1.1,2c-.41.61-.81,1.26-1.19,2a16.3,16.3,0,0,0-1.43,3.85,34.92,34.92,0,0,1-1.14,4c-.38,1.08-.79,2.12-1.24,3.14s-.92,2.06-1.43,3.14l-2,4.57a3.58,3.58,0,0,1-1,1.58,5.81,5.81,0,0,1-1.52,1.19c-.57.38-1.18.74-1.81,1.09s-1.24.72-1.81,1.1l-.29.28q0,.28.48.48a2.78,2.78,0,0,0,.86.43c.31.09.63.21.95.33a1.45,1.45,0,0,1,1,.81,1.85,1.85,0,0,1,.1,1.29q-1.91,5.33-3.67,10.57a105.79,105.79,0,0,1-4.14,10.38,17.93,17.93,0,0,1-1.34,2.38,6.42,6.42,0,0,1-2,1.91,4.48,4.48,0,0,1-2.19.62,4.5,4.5,0,0,0-2.28.71c-.13.13-.31.32-.53.57a2.36,2.36,0,0,0-.43.67c-.13.25-.11.43,0,.52s.36.21.62.34a12,12,0,0,0,3.05.38c1.2-.13,2.44-.22,3.71-.29s2.57-.09,3.91-.09,2.89,0,4.28.14,2.73.21,4,.33a1,1,0,0,0,.81-.43,1.81,1.81,0,0,0,.39-1,1.92,1.92,0,0,0-.24-1.09,1.08,1.08,0,0,0-1.05-.52c-.26,0-.62,0-1.1,0a7.89,7.89,0,0,1-1.47-.24,5.17,5.17,0,0,1-1.57-.71,4.62,4.62,0,0,1-1.39-1.48,2.72,2.72,0,0,1,.1-3.14,5.82,5.82,0,0,0,.71-2,5.84,5.84,0,0,1,.72-2,15.24,15.24,0,0,0,1.71-4.86,20.42,20.42,0,0,1,1.53-4.95,2.83,2.83,0,0,1,1-1.24,1.16,1.16,0,0,1,.62-.19,3.07,3.07,0,0,0,.71-.09c1.72-.07,3.43-.11,5.15-.15s3.43,0,5.14,0c1.46,0,2.89,0,4.29,0s2.79.08,4.19.15a3.16,3.16,0,0,1,2.09.57,4.39,4.39,0,0,1,1.15,1.9,31.72,31.72,0,0,1,.71,3.57,19.1,19.1,0,0,0,.81,3.48,20.46,20.46,0,0,0,1.43,3.43,10.94,10.94,0,0,1,1.14,3.52,2.81,2.81,0,0,1,.14,1.19,2,2,0,0,1-.42,1.1,3.54,3.54,0,0,1-1.43,1c-.83.45-1.51.8-2,1l-2,1a.91.91,0,0,0-.43.81c0,.42.21.62.72.62,1-.06,1.87-.11,2.76-.14s1.74,0,2.57,0c1.84,0,3.57,0,5.19.14s3.35.15,5.19.15c.83,0,1.65,0,2.48,0s1.71-.08,2.67-.14,1.36-.38,1.43-1S645.06,759.75,644.17,759.43Z"/><path class="cls-3" d="M619.59,734.76H603.5a1.43,1.43,0,0,1-.58-.09c-.38-.26-.44-.64-.19-1.15a26.77,26.77,0,0,1,1.15-2.71c.44-.92.89-1.83,1.33-2.72a63.83,63.83,0,0,0,3-7,53.82,53.82,0,0,0,2-7.38,17.37,17.37,0,0,1,.67-2,8.75,8.75,0,0,1,.61-1.33,1,1,0,0,1,.81-.57c.26,0,.51.22.77.66a6.78,6.78,0,0,1,.52,1.14c.16.45.3.83.43,1.15.51,1.46,1,2.89,1.52,4.28s1,2.83,1.53,4.29q1.14,3,2.23,6a26.51,26.51,0,0,1,1.48,6.1,1,1,0,0,1-.28,1A1.34,1.34,0,0,1,619.59,734.76Z"/><path class="cls-5" d="M618.83,732.86c-.13-.7-.44-1.89-1-3.58s-1.1-3.5-1.76-5.47-1.34-3.91-2-5.81-1.26-3.46-1.77-4.67a3.57,3.57,0,0,0-.19.76,55.29,55.29,0,0,1-2.19,7.62c-.89,2.42-1.9,4.83-3.05,7.24l-.57,1.19c-.25.54-.54,1.16-.85,1.86a7.06,7.06,0,0,0-.48,1h.76c.51,0,1,0,1.53-.05s1,0,1.52,0Z"/><path class="cls-3" d="M665.88,731.33c-.25-.12-.49-.25-.71-.38a7,7,0,0,0-.81-.38,15.34,15.34,0,0,1-3.72-2.67,21.21,21.21,0,0,1-3.19-3.85,21.46,21.46,0,0,1-2.19-4.43,13.17,13.17,0,0,1-.81-4.39c0-1,0-2.06.1-3.14a28.94,28.94,0,0,1,.38-3.28,16.74,16.74,0,0,1,.86-3.2,12.41,12.41,0,0,1,1.43-2.76,23.93,23.93,0,0,1,8-7.05,23.15,23.15,0,0,1,10.53-2.19q3,0,6.19.24a41.49,41.49,0,0,1,6.1.91,10.84,10.84,0,0,1,1.71.38,2.53,2.53,0,0,1,1.71,1.14,2.21,2.21,0,0,1,.48.9,7.18,7.18,0,0,0,.19.72,22.7,22.7,0,0,0,.19,3.05,20.61,20.61,0,0,0,.67,3l.57,2.85c.06.51.13,1,.19,1.43a10.7,10.7,0,0,1,.1,1.43,4.12,4.12,0,0,1-.86,2.43,3,3,0,0,1-2.57,1.19,3.33,3.33,0,0,1-2.62-1,8.58,8.58,0,0,1-1.38-2,16.59,16.59,0,0,1-.86-2,18.29,18.29,0,0,0-1-2.24,10.49,10.49,0,0,0-2.53-3.43q-1.67-1.51-5.38-1.52a10.62,10.62,0,0,0-4,.76,10.73,10.73,0,0,0-3.38,2.14,10.41,10.41,0,0,0-2.33,3.19,8.7,8.7,0,0,0-.86,3.81,7.61,7.61,0,0,0,.76,3.05,17.91,17.91,0,0,0,1.91,3.29,15,15,0,0,0,2.42,2.66,3.76,3.76,0,0,0,2.34,1.1,5.09,5.09,0,0,0,2.09-.67c.26-.12.49-.25.72-.38l.71-.38a9.77,9.77,0,0,1,1-.33c.32-.1.64-.21,1-.34a2,2,0,0,1,1.19.24,1.69,1.69,0,0,1,.9.81,2.67,2.67,0,0,1,.38,1.53,5.81,5.81,0,0,1-.19,1.43c-.06.19-.12.38-.19.57a3.24,3.24,0,0,1-.19.47,2.22,2.22,0,0,0-.14.38,1.74,1.74,0,0,1-.14.38l-.1.2v.09c.7.32,1.37.6,2,.86s1.27.54,1.91.85a25.63,25.63,0,0,1,2.62,1.58,30.47,30.47,0,0,1,2.95,2.28,28,28,0,0,1,2.67,2.67,9.2,9.2,0,0,1,1.66,2.62,21.3,21.3,0,0,1,1.34,4,19.18,19.18,0,0,1,.57,4.33,21.33,21.33,0,0,1-3,11.48,20.51,20.51,0,0,1-8.86,7.67,10.31,10.31,0,0,1-2.38.85c-1,.26-2.08.51-3.19.76a30.77,30.77,0,0,1-3.24.58,23.8,23.8,0,0,1-2.52.19,29.74,29.74,0,0,1-3.29-.38c-1.68-.26-3.45-.54-5.29-.86-.89-.13-1.77-.29-2.66-.48s-1.69-.35-2.38-.47c-.39-.07-1-.19-1.77-.38a3.65,3.65,0,0,1-1.57-.67,5.15,5.15,0,0,1-1.52-2.33,11.58,11.58,0,0,1-.48-2.43,16.36,16.36,0,0,1-.05-2.1c0-.7.05-1.33.05-1.9a6.78,6.78,0,0,0-.14-1.34c-.1-.44-.21-1-.33-1.52-.07-.32-.13-.62-.2-.91s-.12-.58-.19-.9a10,10,0,0,1-.14-1c0-.35-.05-.68-.05-1a3.24,3.24,0,0,1,1.05-2.67,4,4,0,0,1,2.57-.86,3.77,3.77,0,0,1,3,1.48,5.87,5.87,0,0,1,1.42,3.1,2.21,2.21,0,0,1,.24.71,3,3,0,0,0,.15.62q1.23,4.67,4,6.48a13.85,13.85,0,0,0,7.62,1.81c3.62,0,6.28-.7,8-2.1s2.57-3.87,2.57-7.43a22.39,22.39,0,0,0-.33-4,5.36,5.36,0,0,0-1.39-2.86,34.49,34.49,0,0,0-3.71-3.19,34.89,34.89,0,0,0-4.19-2.71,5.7,5.7,0,0,0-.57-.34,1.7,1.7,0,0,1-.48-.33.26.26,0,0,1-.19.1.28.28,0,0,0-.19.09,5.1,5.1,0,0,0-1.24.76,5.67,5.67,0,0,0-.81.57,3.29,3.29,0,0,1-.71.48l-.91.43a2.81,2.81,0,0,1-1.19.24h-.57a2.28,2.28,0,0,1-1-.53,1.56,1.56,0,0,1-.62-.9,2.93,2.93,0,0,1-.19-.86,6.59,6.59,0,0,1,.1-1.33,5.71,5.71,0,0,0,.19-1.14,3.42,3.42,0,0,0,.19-1A1.35,1.35,0,0,0,665.88,731.33Z"/><path class="cls-9" d="M692.65,736.76a8.62,8.62,0,0,0-2.43-3.19c-1.05-.86-2.08-1.73-3.1-2.62a13.93,13.93,0,0,0-3.62-2.52c-1.27-.61-2.54-1.16-3.81-1.67a1.44,1.44,0,0,1-.85-.81,1.79,1.79,0,0,1-.1-1.29c.19-.5.37-1,.53-1.52a10.33,10.33,0,0,0,.33-1.52c0-.39-.07-.61-.19-.67a.57.57,0,0,0-.38.09,18.64,18.64,0,0,0-2,.86,14.51,14.51,0,0,1-2,.86.28.28,0,0,1-.19.09.79.79,0,0,0-.28.1,4.77,4.77,0,0,1-1,.1,4.69,4.69,0,0,1-2.72-1,15.16,15.16,0,0,1-2.57-2.39,23.8,23.8,0,0,1-2.14-2.9,14.64,14.64,0,0,1-1.34-2.57,9.31,9.31,0,0,1-.57-3.67,10.52,10.52,0,0,1,.86-3.62,13.24,13.24,0,0,1,2-3.24,11.23,11.23,0,0,1,2.86-2.43,12.07,12.07,0,0,1,6.76-2,11.22,11.22,0,0,1,6.86,2.19,9.56,9.56,0,0,1,3.71,6.1,8.14,8.14,0,0,0,1,2.52,2.37,2.37,0,0,0,2.19,1.38,1.42,1.42,0,0,0,1.19-.57,2.26,2.26,0,0,0,.24-1.71c-.32-1.72-.66-3.41-1-5.1a30.12,30.12,0,0,1-.62-5.09,7.25,7.25,0,0,0,0-.86,2.24,2.24,0,0,0-.24-.76,4.44,4.44,0,0,0-2.38-.81c-1.33-.22-2.81-.41-4.43-.57s-3.14-.27-4.57-.34-2.37-.09-2.81-.09a24.61,24.61,0,0,0-8.34,1.38,15.38,15.38,0,0,0-6.71,4.81c-.7.76-1.37,1.56-2,2.38a7.53,7.53,0,0,0-1.33,2.57,55.46,55.46,0,0,0-.91,5.53,23.28,23.28,0,0,0,0,5.33,8.58,8.58,0,0,0,1,2.67,23.35,23.35,0,0,0,1.81,2.86,27.43,27.43,0,0,0,2.19,2.66c.76.83,1.46,1.53,2.09,2.1a7.06,7.06,0,0,0,1.67,1.09l1.86.91a1.51,1.51,0,0,1,.76,1.33c-.07.7-.16,1.4-.29,2.1s-.22,1.39-.28,2.09a.57.57,0,0,0,.09.38c0,.07.06.1.19.1a1,1,0,0,0,.48-.1,10.23,10.23,0,0,0,2.09-1.28,10.82,10.82,0,0,1,2.1-1.29,1.74,1.74,0,0,1,.67-.09,1.51,1.51,0,0,1,.85.19c.7.51,1.43,1,2.19,1.43s1.69,1,2.77,1.71c.19.13.49.35.9.67s.86.68,1.33,1.09l1.39,1.19c.44.38.76.67,1,.86a6,6,0,0,1,1.81,3.33,28.6,28.6,0,0,1,.47,3.62,18.62,18.62,0,0,1-.42,5.43,8.33,8.33,0,0,1-2.53,4.48,9,9,0,0,1-4.95,2.29,37.15,37.15,0,0,1-5.53.47,14.34,14.34,0,0,1-2.71-.28l-2.62-.48a5.11,5.11,0,0,1-1.91-1,15.95,15.95,0,0,1-4-4.72,11.6,11.6,0,0,1-1.23-3.23,14.73,14.73,0,0,0-1.15-3.2,2,2,0,0,0-1.81-1.28,2.52,2.52,0,0,0-1.14.28,1.12,1.12,0,0,0-.57,1.1,11.06,11.06,0,0,0,.19,1.91c.13.73.3,1.49.52,2.28a8.21,8.21,0,0,1,.34,2.14c0,.64,0,1.34-.05,2.1a15.8,15.8,0,0,0,.05,2.19,9.84,9.84,0,0,0,.38,2,3.67,3.67,0,0,0,.95,1.62,2.81,2.81,0,0,0,1.91.67,10.4,10.4,0,0,1,2.09.19q1.91.28,3.24.57l2.52.52c.8.16,1.65.32,2.57.48a26.61,26.61,0,0,0,3.2.33,19.27,19.27,0,0,0,2.43-.19c1-.13,2-.3,3-.52s2-.46,3-.72a15,15,0,0,0,2.23-.76q5.71-2.76,8.1-6.9a23.78,23.78,0,0,0,2.76-10.53,17.31,17.31,0,0,0-.52-3.86A22.67,22.67,0,0,0,692.65,736.76Z"/><path class="cls-3" d="M738.18,703.61a4.93,4.93,0,0,0-.1,1,7.94,7.94,0,0,1-.1,1.24q-.18,4.86-.33,9.67c-.09,3.2-.14,6.43-.14,9.67a1.14,1.14,0,0,0,.19.66,2.55,2.55,0,0,0,.95.67l.86.52a5.3,5.3,0,0,0,.86.43,5.14,5.14,0,0,1,2,1.53,2.13,2.13,0,0,1,.43,1.19,1.65,1.65,0,0,1-.34,1.19l-.38.47-.28.29-.29.19a4.93,4.93,0,0,1-.91.43,6.38,6.38,0,0,0-.8.33l-.67.19a5.66,5.66,0,0,0-.67.29,2.33,2.33,0,0,0-.57.38q0,4.86.19,9.81t.67,9.81c.12,1.14.41,1.86.85,2.14a4.81,4.81,0,0,0,1.91.62,6.47,6.47,0,0,1,.76,0,6.47,6.47,0,0,0,.76.05,8.4,8.4,0,0,1,3,1.14,3.31,3.31,0,0,1,1.14,3,3.43,3.43,0,0,1-1.53,3.15,6.33,6.33,0,0,1-3.42.95c-2.35,0-4.69-.08-7-.24s-4.62-.24-6.91-.24c-1.08,0-2.14,0-3.19,0s-2.11,0-3.19,0a6.59,6.59,0,0,1-1.1-.1c-.41-.06-.87-.16-1.38-.28a6.78,6.78,0,0,1-1.52-.86,2.46,2.46,0,0,1-.95-2.19,2.67,2.67,0,0,1,.47-1.67,13.5,13.5,0,0,1,1-1.09,4.54,4.54,0,0,1,1.15-.72c.38-.16.76-.3,1.14-.43l2-.57,1.14-.38a3.7,3.7,0,0,0,1.67-2.48,15.59,15.59,0,0,0,.33-3.14v-2.67q0-3,.1-6c.06-1.93.09-3.92.09-6a2.25,2.25,0,0,0-.33-1.43,2.1,2.1,0,0,0-1-.57l-.95-.38-1-.38a9.52,9.52,0,0,1-1.15-.58,3.27,3.27,0,0,1-1.14-1.14,2.45,2.45,0,0,1-.19-1.09,1.87,1.87,0,0,1,.19-1l.19-.29q.09,0,.33-.24t.24-.33a17.81,17.81,0,0,1,1.81-1c.64-.32,1.27-.67,1.91-1.05a2.72,2.72,0,0,0,1-2.19q.19-4.29.19-8.62V704.9a9,9,0,0,0-.09-1.38,1,1,0,0,0-.05-.38.45.45,0,0,1,0-.19h-4.57c-.38,0-1,0-1.76,0s-1.59.09-2.38.15-1.54.16-2.24.28a3.37,3.37,0,0,0-1.52.58,5.39,5.39,0,0,0-1.34,1.61q-.48.76-.9,1.53c-.29.51-.59,1-.91,1.52s-.63,1.21-1,1.72-.64,1-.95,1.43a3.46,3.46,0,0,1-1.05,1.23,3.85,3.85,0,0,1-.76.58,2.4,2.4,0,0,1-1.24.28,2.91,2.91,0,0,1-1.71-.47,3.48,3.48,0,0,1-1.05-1.15,4.62,4.62,0,0,1-.53-1.33,5.73,5.73,0,0,1-.14-1.05,36.8,36.8,0,0,1,.57-6.38c.13-1.08.29-2.13.48-3.14s.35-2,.48-3a3.61,3.61,0,0,1,2.19-2.95,9.4,9.4,0,0,1,3.71-.76A8.4,8.4,0,0,1,711,694a12.63,12.63,0,0,1,1.57.42,13.37,13.37,0,0,0,1.39.29,8.85,8.85,0,0,0,1.28.1c1.46,0,2.87,0,4.24-.15s2.78-.14,4.24-.14c1.14,0,2.28,0,3.43-.05s2.28,0,3.43,0c2.34,0,4.6.1,6.76.29L742,695c1.56.13,3.13.19,4.72.19,1,0,1.9,0,2.86-.09s1.93-.16,2.95-.29a2.92,2.92,0,0,0,.76-.19c.38-.13.7-.22.95-.29s.72-.25,1.19-.38a6.45,6.45,0,0,1,1.58-.19,4.55,4.55,0,0,1,3.19,1.1,4.13,4.13,0,0,1,1.19,3.19c.06,1.9.22,3.81.47,5.71a42.27,42.27,0,0,1,.38,5.72,6.38,6.38,0,0,1-.76,3.05,2.77,2.77,0,0,1-2.66,1.43,3.65,3.65,0,0,1-2.15-.57,4.64,4.64,0,0,1-1.28-1.34c-.13-.25-.24-.49-.34-.71a3,3,0,0,0-.33-.62,5.75,5.75,0,0,0-.67-1.62c-.38-.7-.78-1.4-1.19-2.1a15.34,15.34,0,0,0-1.28-1.85,7.67,7.67,0,0,0-1.05-1.1,1.81,1.81,0,0,0-.43-.14l-.81-.15a3,3,0,0,0-1.05-.19,9.4,9.4,0,0,1-1.24-.09h-7.62a2,2,0,0,1-.61.09Z"/><path class="cls-10" d="M760.37,709.52c-.13-2.1-.27-4-.43-5.72s-.3-3.58-.43-5.62a2.18,2.18,0,0,0-2.47-2.47,4,4,0,0,0-1.81.38,5.76,5.76,0,0,1-1.81.57c-.77.13-1.54.22-2.34.29s-1.59.11-2.38.14-1.44,0-2,0c-1.53,0-3-.07-4.57-.19s-3.21-.26-5-.38a18.89,18.89,0,0,0-2-.1h-8a13.39,13.39,0,0,1-1.57-.09h-4c-.74,0-1.45,0-2.15.09s-1.4.11-2.09.14-1.4,0-2.1,0a20.64,20.64,0,0,1-2.33-.14,7.59,7.59,0,0,1-2.24-.62,2.76,2.76,0,0,0-1.24-.29,10.15,10.15,0,0,0-1.19.1,5.51,5.51,0,0,0-1.33.33,3.35,3.35,0,0,0-1,.62,1.34,1.34,0,0,0-.43,1.05c-.19,1.21-.33,2.25-.43,3.14s-.24,2-.43,3.24c-.13.76-.22,1.52-.28,2.29s-.16,1.52-.29,2.28c-.06.38-.11.75-.14,1.1a2.12,2.12,0,0,0,.14,1,1.47,1.47,0,0,0,1.43,1.24,1.12,1.12,0,0,0,1.1-.48,7.88,7.88,0,0,0,.71-1.14c.51-.89,1-1.77,1.43-2.62s.89-1.73,1.33-2.62a11.29,11.29,0,0,1,1-1.57,4.62,4.62,0,0,1,1.43-1.19,5.12,5.12,0,0,1,1.81-.67,19.06,19.06,0,0,1,3.33-.53c1.27-.09,2.54-.14,3.81-.14a38.46,38.46,0,0,1,4,.19,9.28,9.28,0,0,1,2.1.38c.38.26.58,1.51.62,3.77s0,4.9-.15,8c-.06,1.65-.09,3.4-.09,5.24v5.62a4.47,4.47,0,0,1-1.91,3.62,15.92,15.92,0,0,1-1.9,1.14,16.79,16.79,0,0,0-1.81,1c-.13.13-.19.22-.19.28s.06.29.38.48a3,3,0,0,0,1.1.57c.41.13.84.26,1.28.38a4.83,4.83,0,0,1,2.19,1.57,4,4,0,0,1,.86,2.53q-.1,3-.1,5.9t-.09,5.34a16.58,16.58,0,0,0,0,2.9,9.31,9.31,0,0,1-.15,2.81,10.87,10.87,0,0,1-1,2.76,5,5,0,0,1-1.9,2.1,6.17,6.17,0,0,1-1.62.72c-.57.15-1.15.3-1.72.42a6.29,6.29,0,0,0-1.76.72,1.38,1.38,0,0,0-.81,1.38A1.55,1.55,0,0,0,720,762.1a6.64,6.64,0,0,0,1.91.28c1-.06,2.06-.09,3.14-.09h3.24c2,0,3.94,0,5.91.05s3.87.11,5.71.23c.32,0,.68,0,1.1,0s.81,0,1.19,0a4.82,4.82,0,0,0,2.09-.38,1.78,1.78,0,0,0,1-1.48,2.11,2.11,0,0,0-.66-1.76,1.77,1.77,0,0,0-.86-.48l-1-.19a18.75,18.75,0,0,0-2.1-.24,3.63,3.63,0,0,1-1.81-.52,3.4,3.4,0,0,1-1.38-1.62,6.61,6.61,0,0,1-.62-2.19c0-.19,0-.6-.09-1.24s-.11-1.35-.15-2.14-.08-1.57-.14-2.33-.09-1.37-.09-1.81,0-1,0-2-.08-2-.14-3.15-.12-2.31-.15-3.52,0-2.29,0-3.24a2.17,2.17,0,0,1,.43-1.57,2.73,2.73,0,0,1,1.38-1c.51-.13,1-.27,1.43-.43a8,8,0,0,0,1.34-.62c.25-.13.38-.29.38-.48l-.29-.28a16.79,16.79,0,0,0-1.81-1,11.45,11.45,0,0,1-1.81-1.14,3,3,0,0,1-1.43-2.57c0-.39,0-1.19,0-2.43s.06-2.7.1-4.38.06-3.45.09-5.29.08-3.56.14-5.14.13-2.92.2-4a4.59,4.59,0,0,1,.28-1.82c.19-.25.89-.41,2.1-.47s2.54-.1,4-.1h2.71c.92,0,1.73,0,2.43.1a14.16,14.16,0,0,1,2,.14,5.33,5.33,0,0,1,1.81.62,5,5,0,0,1,1.19,1.19c.48.61.95,1.24,1.43,1.91s.9,1.32,1.29,1.95a8.44,8.44,0,0,1,.76,1.52c.12.45.25.86.38,1.24a2.72,2.72,0,0,0,.67,1.05,1.88,1.88,0,0,0,1.62.76.91.91,0,0,0,.66-.19,1.37,1.37,0,0,0,.76-1A8.51,8.51,0,0,0,760.37,709.52Z"/><path class="cls-3" d="M800.47,725.43a6.07,6.07,0,0,0,.76-1.24,24.62,24.62,0,0,0,1.57-2.48l.72-1.33a16,16,0,0,1,1.24-2.38,10.94,10.94,0,0,1,1.61-2.1,5.7,5.7,0,0,0,.34-.57,4.18,4.18,0,0,1,.33-.57q1.34-2.38,2.48-4.81t2.09-4.91a5.18,5.18,0,0,0,.48-1.24,4.39,4.39,0,0,0,.1-.66,2.07,2.07,0,0,0-.05-.53.56.56,0,0,1,0-.23,8.19,8.19,0,0,1-.86-.2H809.8a5.43,5.43,0,0,1-2.28-.71,3.13,3.13,0,0,1-.67-4.67,4.85,4.85,0,0,1,1.52-1,11.58,11.58,0,0,1,1.29-.28,7.86,7.86,0,0,1,1.1-.1l16.28-.28a7.17,7.17,0,0,1,1,.09,3.05,3.05,0,0,1,1.19.48,3.47,3.47,0,0,1,1,.95,2.94,2.94,0,0,1,.38,1.62,3.7,3.7,0,0,1-1.72,3.43,6.61,6.61,0,0,1-.81.28c-.22.07-.46.13-.71.19a1.54,1.54,0,0,1-.52.15,3.54,3.54,0,0,0-.62.14,9.33,9.33,0,0,0-2.19.72,5.37,5.37,0,0,0-2.19,2.23q-3.34,5.54-6.48,11.05t-6.48,11c.13.12.22.19.29.19a4.63,4.63,0,0,1,1.9,1.43,1.7,1.7,0,0,1,.38,1,1.62,1.62,0,0,1-.09,1,2,2,0,0,1-.53.76l-.52.47a8.2,8.2,0,0,1-1.14.67c-.32.13-.67.26-1,.38l-1.14.38a4.86,4.86,0,0,0-1.62.57,16.52,16.52,0,0,0-.67,2.48,21.61,21.61,0,0,0-.38,3c-.06,1-.11,2-.14,3s0,2,0,2.86v2.14c0,.8,0,1.64.09,2.53s.15,1.66.24,2.33a7,7,0,0,0,.43,1.67,3.19,3.19,0,0,0,1.19,1.57,7.56,7.56,0,0,0,1.67.71,1.63,1.63,0,0,0,.57.1,1.88,1.88,0,0,1,.57.09,5.44,5.44,0,0,1,2.24,1.24,3,3,0,0,1,.9,2.29,3.76,3.76,0,0,1-1.14,2.76,2.72,2.72,0,0,1-1.05.52c-.38.1-.76.21-1.14.34a14.34,14.34,0,0,1-1.9.33c-.83.1-1.69.17-2.58.24s-1.73.09-2.52.09h-1.95c-1.15.07-2.29.1-3.43.1h-7.62a5.69,5.69,0,0,1-2.72-.76,3.07,3.07,0,0,1-1.38-3,3.11,3.11,0,0,1,1.15-2.61,8.12,8.12,0,0,1,2.66-1.39,6.23,6.23,0,0,1,.91-.28,5.48,5.48,0,0,0,.9-.29,2.1,2.1,0,0,0,.76-.47,5.08,5.08,0,0,0,.62-2.39c.16-1.33.29-2.8.38-4.42s.16-3.18.19-4.67,0-2.46,0-2.91v-1.9c0-.64,0-1.3-.09-2,0-.51,0-1-.05-1.48s-.08-1-.14-1.47a7.36,7.36,0,0,0-.91-.48c-.28-.13-.59-.25-.9-.38s-.59-.22-.81-.29a4.41,4.41,0,0,1-.72-.28,9.86,9.86,0,0,1-1.81-.86l-.28-.19-.29-.29-.38-.47a1.65,1.65,0,0,1-.33-1.19,2,2,0,0,1,.43-1.19,1.9,1.9,0,0,1,.66-.58,1.81,1.81,0,0,0,.57-.38,8,8,0,0,1,1.15-.66c-.13-.26-.27-.53-.43-.81s-.33-.59-.53-.91l-1.52-2.81c-.57-1-1.18-2.11-1.81-3.19q-1.9-3.33-3.67-6.62a23.07,23.07,0,0,1-2.14-4.9,4.28,4.28,0,0,0-1.71-2.29,2,2,0,0,1-.72-.67l-.43-.66a1.55,1.55,0,0,1-.24-.57,1.5,1.5,0,0,0-.23-.58,1.25,1.25,0,0,0-.29-.47c0-.06-.29-.13-.86-.19a4.32,4.32,0,0,0-1-.1,5.09,5.09,0,0,1-1-.09,7.46,7.46,0,0,0-1.14-.34,3.48,3.48,0,0,1-1.24-.52,3.53,3.53,0,0,1-1.43-2.86,3,3,0,0,1,1.62-3,7.75,7.75,0,0,1,3.52-.81,6,6,0,0,1,.81.05,4.69,4.69,0,0,0,.62,0,17.85,17.85,0,0,1,3.19.28,17.85,17.85,0,0,0,3.19.29,13.52,13.52,0,0,0,3-.33,13,13,0,0,1,3-.34c.32,0,.71,0,1.19.05a8,8,0,0,1,1.48.24,14.17,14.17,0,0,1,1.95,1.09,2.22,2.22,0,0,1,.9,2,3.11,3.11,0,0,1-1.09,2.47,7.49,7.49,0,0,1-2.43,1.43l-.86.29H788a5.45,5.45,0,0,0,.57,1.62,10.39,10.39,0,0,0,.67,1.28c.25.42.51.84.76,1.29a34.52,34.52,0,0,1,2.29,4.43q.94,2.23,2.09,4.43c.51.89,1.07,1.77,1.67,2.66s1.19,1.78,1.76,2.67a25,25,0,0,1,1.43,2.19C799.67,723.9,800.09,724.66,800.47,725.43Z"/><path class="cls-11" d="M828,697.23a1.87,1.87,0,0,0-1-.19l-16.28.29a10.94,10.94,0,0,0-1.15,0,1.65,1.65,0,0,0-1.05.52,1,1,0,0,0-.57,1,1.18,1.18,0,0,0,.57,1.1,2.48,2.48,0,0,0,1.24.33,4.77,4.77,0,0,0,.76,0,6.64,6.64,0,0,1,.77-.05,2.59,2.59,0,0,1,.76.1,2.5,2.5,0,0,1,1.57,1.19,3.26,3.26,0,0,1,.43,1.95,7.83,7.83,0,0,1-.67,2.48c-.44,1.14-1,2.37-1.57,3.67s-1.21,2.51-1.81,3.62-1,1.92-1.28,2.43a18.16,18.16,0,0,1-1.81,2.57,9,9,0,0,0-1.62,2.85,9.4,9.4,0,0,1-.81,1.62c-.48.83-1,1.69-1.57,2.58s-1.13,1.68-1.67,2.38-.91,1-1.1,1-.51-.11-.57-.33a4.33,4.33,0,0,0-.28-.71,28.06,28.06,0,0,0-3-5.38q-2-2.82-3.58-5.67a43.1,43.1,0,0,1-2.19-4.48,34.42,34.42,0,0,0-2.19-4.38c-.57-1-1.11-1.92-1.62-2.9a5.82,5.82,0,0,1-.66-3.1c0-.25.23-.46.71-.62s1-.35,1.52-.57a12.11,12.11,0,0,0,1.53-.76,1.57,1.57,0,0,0,.81-1.1c.12-.57-.16-1-.86-1.24A8.51,8.51,0,0,0,788,697c-.7,0-1.35,0-2,0a18.47,18.47,0,0,0-1.95.24,11.6,11.6,0,0,1-1.58.29,14.17,14.17,0,0,1-1.57.09c-.32,0-.66,0-1.05,0a9.26,9.26,0,0,1-1-.15c-.89-.12-1.76-.22-2.62-.28s-1.73-.1-2.62-.1h-1.34a4.06,4.06,0,0,0-1.23.19,1.93,1.93,0,0,0-.91.62,2,2,0,0,0-.24,1.38,1.17,1.17,0,0,0,.77.95,5.9,5.9,0,0,0,1.52.43c.57.1,1.16.18,1.76.24a5.65,5.65,0,0,1,1.57.38,2.3,2.3,0,0,1,1.1,1.53,2.88,2.88,0,0,0,1,1.62,4.64,4.64,0,0,1,1.52,1.43,6.44,6.44,0,0,1,.86,1.9,8.15,8.15,0,0,0,1.29,3.14,14.05,14.05,0,0,1,1.57,2.77,19.52,19.52,0,0,0,2.57,4.66,16,16,0,0,1,1.81,3.24,23.6,23.6,0,0,0,1.71,3.33l.72,1.24c.22.38.46.76.71,1.15a.88.88,0,0,1-.28,1.33l-1.29.71c-.41.23-.81.47-1.19.72l-.29.28q0,.29.39.48a6.36,6.36,0,0,0,1.52.62c.57.16,1.13.33,1.67.52a11.64,11.64,0,0,1,1.52.67,3.33,3.33,0,0,1,1.19,1,14.64,14.64,0,0,1,.29,1.47,11.88,11.88,0,0,1,.09,1.48c0,1.14,0,2.49,0,4s0,3.17,0,4.86-.14,3.35-.24,5a37.64,37.64,0,0,1-.52,4.57,5.49,5.49,0,0,0-.29,1,2.24,2.24,0,0,1-.47,1,3.64,3.64,0,0,1-2.24,1.38,18.46,18.46,0,0,0-2.71.81,2,2,0,0,0-1,2.38,1.07,1.07,0,0,0,.76.91,4.19,4.19,0,0,0,1.34.23q4.38-.09,8.76-.14t8.86-.14l1.67-.19a3.36,3.36,0,0,0,1.57-.67,1.76,1.76,0,0,0,.47-1.81,1.73,1.73,0,0,0-1.52-1.19,10,10,0,0,1-2.19-.52,3.72,3.72,0,0,1-2-1.15,6.27,6.27,0,0,1-1.19-2,8.93,8.93,0,0,1-.57-2.33c-.1-.83-.18-1.59-.24-2.29-.13-1.9-.18-3.81-.14-5.71s.14-3.78.33-5.62c.06-.83.16-1.77.28-2.81a7.37,7.37,0,0,1,.77-2.62,1,1,0,0,1,.38-.67,6.69,6.69,0,0,1,2.57-1.09,8,8,0,0,0,2.67-1.1c.31-.13.47-.29.47-.48l-.28-.28a8.87,8.87,0,0,0-1.38-.81,8.52,8.52,0,0,1-1.39-.81.38.38,0,0,1-.19-.57c1.08-1.84,2.21-3.64,3.39-5.38a41.6,41.6,0,0,0,3.09-5.48,51.21,51.21,0,0,1,3.57-6.38q2-3,3.77-6.1a16.82,16.82,0,0,1,1.42-2,5.17,5.17,0,0,1,1.81-1.38,4.45,4.45,0,0,1,1.86-.38,4.58,4.58,0,0,0,1.86-.38,2.43,2.43,0,0,0,1.47-1.53A1.13,1.13,0,0,0,828,697.23Z"/><text class="cls-12" transform="translate(522.81 806.66) scale(1.03 1)">Heritage</text><path class="cls-13" d="M527.59,398.64c-2.2-.23-4.64,0-6.5-.89-1.24-.61-1.55-3-2.44-4.44-1-1.64-2.14-3.16-3.22-4.73-1.16,11.2,5.93,17.85,15,15.58,5.68-1.43,6.9-5.05,2.86-9.29-6.83-7.17-15.7-10.86-25.74-14.81,6.77,4.87,12.67,8.88,18.24,13.32C527,394.36,527,396.85,527.59,398.64Z"/><path class="cls-13" d="M597.81,456.78c1.25-.25,2.86-3.39,2.67-5-.56-4.79-4.16-7.56-8.12-9.88.92,3.82,2.08,7.11,2.41,10.48C595,454.73,594.66,457.43,597.81,456.78Z"/><path class="cls-14" d="M462.7,274.05c-5.24,7.22-21.33,27.62-34.94,26.82-9.17-.54-20-15.39-23.08-35.88-.24-1.66-.45-3.36-.59-5.09-.07,1.75-.2,3.48-.41,5.16-2.34,20.52-13.92,35.27-23.09,35.81-13.4.79-29.19-18.95-34.7-26.47-1.19-1.62-1.88-2.67-2-2.83l1.14,3.34,16.81,49.93H446l17.49-50.4,1-2.87C464.36,271.73,463.73,272.64,462.7,274.05Z"/><path class="cls-3" d="M383.49,314.2a3.66,3.66,0,1,1,3.67-3.65A3.63,3.63,0,0,1,383.49,314.2Z"/><polygon class="cls-3" points="404.21 317.61 399.63 308.19 404.21 298.79 408.79 308.19 404.21 317.61"/><path class="cls-3" d="M424.93,314.2a3.66,3.66,0,1,1,3.67-3.65A3.64,3.64,0,0,1,424.93,314.2Z"/><path class="cls-3" d="M408.49,260.42a4.63,4.63,0,1,1-4.63-4.63A4.63,4.63,0,0,1,408.49,260.42Z"/><path class="cls-3" d="M467.53,271.56a3.07,3.07,0,1,1-3.06-3.06A3.06,3.06,0,0,1,467.53,271.56Z"/><path class="cls-3" d="M347,272.05A3.07,3.07,0,1,1,344,269,3.08,3.08,0,0,1,347,272.05Z"/><path class="cls-3" d="M400.59,344.9l-.91.59Z"/><path class="cls-13" d="M500.44,415.31c6.53,4.71,12.23,8.58,17.6,12.86,1.18.95,1.21,3.35,1.77,5.08-2.12-.23-4.47,0-6.27-.86-1.19-.59-1.5-2.86-2.35-4.29s-2.07-3.05-3.11-4.56c-1.12,10.81,5.72,17.22,14.43,15,5.49-1.38,6.66-4.87,2.77-9C518.69,422.69,510.13,419.13,500.44,415.31Z"/><path class="cls-13" d="M582.3,475c.9,3.69,2,6.86,2.34,10.12.22,2.28-.12,4.89,2.93,4.26,1.2-.24,2.76-3.27,2.57-4.84C589.6,479.88,586.13,477.21,582.3,475Z"/><path class="cls-15" d="M354.09,623.88s-15.79,68.23-69.35,94.57c0,0,54.29,0,69.31-69.21Z"/><path class="cls-3" d="M505,335.16c-15.05-2.33-51.44-2.67-83.74-2.78-31.66-.11-59.39,0-59.39,0V396c17.32-34,50.74-48.31,72.36-54.09,10.73-2.87,30.56-3.39,37.83-2.47,25.74,3.25,66.9,14.83,107.69,53,29,27.15,38.92,66.25,42.39,89.72a184.1,184.1,0,0,1,1.9,19.61c0,.14,0,.28,0,.43s0,.29,0,.43C624,504.12,623.77,509,623,516c-2.57,22.17-11.49,66.25-43.22,96-40.79,38.21-82,49.79-107.69,53-7.27.91-27.1.4-37.83-2.47-21.62-5.78-55-20.13-72.36-54.1V672.1s27.73.11,59.39,0c32.3-.11,68.69-.46,83.74-2.79,88.86-13.76,133.32-96.15,140.67-153.47a139.69,139.69,0,0,0-1-33.64C635.39,425.26,590.57,348.42,505,335.16Z"/><path class="cls-16" d="M446.26,646.82c60.15,5.36,93.25-30.4,98.66-42.16-6.39-8.9-13.68-17.2-20.73-25.63-17.76-21.24-27.91-45.18-26.05-73.32.26-4-1.24-5.55-4.68-6.9-14.69-5.73-26.49-14.69-30.81-30.68-1.54-5.7-1.63-11.79-2.38-17.7l1.39-.14c.93,4.12,1.57,8.33,2.85,12.34a45.42,45.42,0,0,0,41,32c17.46,1,32.61,6.72,44.7,19.93,7,7.62,18,9.75,28.7,6.21a95.73,95.73,0,0,1-8.81-4,25.38,25.38,0,0,1-7.28-6.3c3.74,1.42,7.41,3.12,11.25,4.2,8.68,2.42,13.13,1.17,17.82-6.35,5.35-8.58,11.2-17.55,7.26-28.39-1.44-4-4.06-8.67-7.5-10.52-12.67-6.84-22-17.27-31.67-27.34-5.13-5.32-10.32-10.6-15.21-16.14a51.73,51.73,0,0,1-5.95-8.71A97.78,97.78,0,0,0,495.7,377c-.71-9.4-1.59-18.68-4.68-28.36-8.43,5.92-11.69,22.2-11.62,22.17a37.64,37.64,0,0,0,.18,6.5c.85,4.08,1.82,6.48,2.68,10.58-6.74-16.63-11.31-33.7-21.15-48.88l-3.06.06c-2,4.44-4.68,8.44-5.65,13.09a65.53,65.53,0,0,0,4,39.36c.77,1.84,1.62,3.65,2.47,5.45s1.69,3.47,2.53,5.2c-7.84-7.06-12-15.94-13.8-26-1-5.46-1.35-7.15-4.1-7.37a33.74,33.74,0,0,0-5.41.38,16.12,16.12,0,0,0-1.83.26c-32.29,7.58-57.66,24.3-73.81,54.16-6.85,12.69-15.67,24.29-23.13,36.64-22.82,37.8-40.69,50.82-80.88,65.61,46.91.92,68.84-13.78,80.22-25.48-7.79,21.57-11,40-63.16,59,38.92-4,49-14.38,58-19-.8,12.88-27.59,51.11-36.29,60.29-7,7.38-14,14.7-20.6,22.46-4.11,4.88-14.68,17.73-22.74,32.26-1.6,2.89-3.11,5.84-4.44,8.81,4.14-4.47,8.82-5.89,13-8.4,8-4.74,16.28-8.77,24.71-10.77a78.82,78.82,0,0,0-3.92,11.77c-4.84,18.79-8.24,23.23-18.2,33.59,5.38,1.56,14.8-.74,18.88-2.88s4.54-2.11,8.73-6.39c-3.1,11.47-10.93,22.29-18.8,31.32,15.36-.59,54.33-37.44,63.46-60.48,1.09-2.74,5.38-15.67,6.34-18.46a258.47,258.47,0,0,1,27.7-57.61c5.38-8.34,6.57-17.95,7.12-27.95.57-10.3.58-20.63,1.14-30.93.92-16.74,2-33.77,5.09-50.12,6-31.76,21.76-57.63,51.55-73.08,1.28-.67,2.64-1.19,4.82-2.16a12.92,12.92,0,0,1-1.2,1.5c-.62.46-1.26.88-1.89,1.31C414.09,411,398.25,433,391.57,461.54c-5.45,23.3-6.16,47-6.11,70.68.05,21.16-2.9,41.59-15.41,58.93-.65.9-1.27,1.83-1.88,2.8,0,0,25.41,42.6,78.09,52.87ZM590.14,484.5c.19,1.57-1.37,4.6-2.57,4.84-3.05.63-2.71-2-2.93-4.26-.33-3.26-1.44-6.43-2.34-10.12C586.13,477.21,589.6,479.88,590.14,484.5Zm-64.86-54.89c3.89,4.09,2.72,7.58-2.77,9-8.71,2.19-15.55-4.22-14.43-15,1,1.51,2.16,3,3.11,4.56s1.16,3.7,2.35,4.29c1.8.89,4.15.63,6.27.86-.56-1.73-.59-4.13-1.77-5.08-5.37-4.28-11.07-8.15-17.6-12.86C510.13,419.13,518.69,422.69,525.28,429.61Z"/></svg>